                                                                        S      1
,,,6HM_Tube,48HAutoCAD 2025 - 简体中文 (Simplified Chinese),62HAutodG      1
esk Translation Framework DWG producer (atf_dwg_producer),32,38,7,99,15,G      2
,1.,10,2HCM,1,0.08,15H20260129.225822,0.001,10000.,,7Hunknown,11,0,15H20G      3
260127.095300;                                                          G      4
     186       1                       1                        00000000D      1
     186             -77       1       0                               0D      2
     514       2                                                00010000D      3
     514                       1       1                               0D      4
     510       3                                                00010000D      5
     510             -77       1       1                               0D      6
     510       4                                                00010000D      7
     510             -77       1       1                               0D      8
     510       5                                                00010000D      9
     510             -77       1       1                               0D     10
     510       6                                                00010000D     11
     510             -77       1       1                               0D     12
     510       7                                                00010000D     13
     510             -77       1       1                               0D     14
     510       8                                                00010000D     15
     510             -77       1       1                               0D     16
     508       9                                                00010000D     17
     508                       1       1                               0D     18
     508      10                                                00010000D     19
     508                       1       1                               0D     20
     508      11                                                00010000D     21
     508                       1       1                               0D     22
     508      12                                                00010000D     23
     508                       1       1                               0D     24
     508      13                                                00010000D     25
     508                       1       1                               0D     26
     508      14                                                00010000D     27
     508                       1       1                               0D     28
     508      15                                                00010000D     29
     508                       1       1                               0D     30
     508      16                                                00010000D     31
     508                       1       1                               0D     32
     126      17                                                00010000D     33
     126       0              10       0                               0D     34
     126      27                                                00010000D     35
     126       0               3       0                               0D     36
     126      30                                                00010000D     37
     126       0              10       0                               0D     38
     126      40                                                00010000D     39
     126       0               3       0                               0D     40
     126      43                                                00010000D     41
     126       0               6       0                               0D     42
     126      49                                                00010000D     43
     126       0               5       0                               0D     44
     126      54                                                00010000D     45
     126       0              11       0                               0D     46
     126      65                                                00010000D     47
     126       0               3       0                               0D     48
     126      68                                                00010000D     49
     126       0              11       0                               0D     50
     126      79                                                00010000D     51
     126       0               3       0                               0D     52
     126      82                                                00010000D     53
     126       0               6       0                               0D     54
     126      88                                                00010000D     55
     126       0               5       0                               0D     56
     128      93                                                00010000D     57
     128       0     -77      18       0                               0D     58
     128     111                                                00010000D     59
     128       0     -77      11       0                               0D     60
     128     122                                                00010000D     61
     128       0     -77      23       0                               0D     62
     128     145                                                00010000D     63
     128       0     -77      12       0                               0D     64
     128     157                                                00010000D     65
     128       0     -77       9       0                               0D     66
     128     166                                                00010000D     67
     128       0     -77       9       0                               0D     68
     502     175                                                00010000D     69
     502                       8       1                               0D     70
     504     183                                                00010001D     71
     504                       3       1                               0D     72
     406     186                                                00000000D     73
     406                       1      15                               0D     74
     406     187                       1                        00000000D     75
     406             -77       1       3                               0D     76
     314     188                                                00000200D     77
     314                       1       0                               0D     78
186,3,1,0,0,1,73;                                                      1P      1
514,6,5,1,7,1,9,1,11,1,13,1,15,1;                                      3P      2
510,57,1,1,17;                                                         5P      3
510,59,1,1,19;                                                         7P      4
510,61,1,1,21;                                                         9P      5
510,63,1,1,23;                                                        11P      6
510,65,2,1,25,27;                                                     13P      7
510,67,2,1,29,31;                                                     15P      8
508,4,0,71,1,1,0,0,71,2,1,0,0,71,3,0,0,0,71,4,0,0;                    17P      9
508,4,0,71,5,1,0,0,71,4,1,0,0,71,6,0,0,0,71,2,0,0;                    19P     10
508,4,0,71,7,1,0,0,71,8,1,0,0,71,9,0,0,0,71,10,0,0;                   21P     11
508,4,0,71,11,1,0,0,71,10,1,0,0,71,12,0,0,0,71,8,0,0;                 23P     12
508,2,0,71,12,1,0,0,71,9,1,0;                                         25P     13
508,2,0,71,6,1,0,0,71,3,1,0;                                          27P     14
508,2,0,71,11,0,0,0,71,7,0,0;                                         29P     15
508,2,0,71,5,0,0,0,71,1,0,0;                                          31P     16
126,4,2,0,0,0,0,-2.16012176002039D-15,-2.16012176002039D-15,          33P     17
-2.16012176002039D-15,1.30533477581951,1.30533477581951,              33P     18
2.61066955163903,2.61066955163903,2.61066955163903,1.,                33P     19
0.794466701511665,1.,0.794466701511663,1.,0.463041055025198,          33P     20
-3.12589075006808,0.641803664656972,0.366807413558272,                33P     21
-3.47984945513312,0.641803664656972,1.72139598248909D-15,             33P     22
-3.47984945513312,0.641803664656973,-0.366807413558268,               33P     23
-3.47984945513312,0.641803664656973,-0.463041055025196,               33P     24
-3.12589075006808,0.641803664656974,-2.16012176002039D-15,            33P     25
2.61066955163903,0.,0.,0.;                                            33P     26
126,1,1,0,0,1,0,0.,0.,23.7,23.7,1.,1.,-0.463041055025196,             35P     27
-3.12589075006808,0.641803664656974,-0.463041055025155,               35P     28
-3.12589075006809,19.601803664657,0.,23.7,0.,0.,0.;                   35P     29
126,4,2,0,0,0,0,-2.16012176002039D-15,-2.16012176002039D-15,          37P     30
-2.16012176002039D-15,1.30533477581951,1.30533477581951,              37P     31
2.61066955163903,2.61066955163903,2.61066955163903,1.,                37P     32
0.794466701511663,1.,0.794466701511665,1.,0.463041055025239,          37P     33
-3.12589075006808,19.601803664657,0.366807413558313,                  37P     34
-3.47984945513313,19.601803664657,4.25378088001034D-14,               37P     35
-3.47984945513313,19.601803664657,-0.366807413558228,                 37P     36
-3.47984945513313,19.601803664657,-0.463041055025155,                 37P     37
-3.12589075006809,19.601803664657,-2.16012176002039D-15,              37P     38
2.61066955163903,0.,0.,0.;                                            37P     39
126,1,1,0,0,1,0,0.,0.,23.7,23.7,1.,1.,0.463041055025198,              39P     40
-3.12589075006808,0.641803664656972,0.463041055025239,                39P     41
-3.12589075006808,19.601803664657,0.,23.7,0.,0.,0.;                   39P     42
126,2,2,0,0,0,0,0.,0.,0.,0.294122983377118,0.294122983377118,         41P     43
0.294122983377118,1.,0.989205933565853,1.,-0.463041055025196,         41P     44
-3.12589075006808,0.641803664656974,3.40656255446596D-16,             41P     45
-3.19448144493935,0.641803664656973,0.463041055025198,                41P     46
-3.12589075006808,0.641803664656972,0.,0.294122983377118,0.,0.,       41P     47
0.;                                                                   41P     48
126,2,2,0,0,0,0,0.,0.,0.,0.294122983377118,0.294122983377118,         43P     49
0.294122983377118,1.,0.989205933565853,1.,-0.463041055025155,         43P     50
-3.12589075006809,19.601803664657,4.11570690730609D-14,               43P     51
-3.19448144493936,19.601803664657,0.463041055025239,                  43P     52
-3.12589075006808,19.601803664657,0.,0.294122983377118,0.,0.,0.;      43P     53
126,6,2,0,0,0,0,0.,0.,0.,1.11842738204503,1.11842738204503,           45P     54
2.23685476409006,2.23685476409006,3.35528214613508,                   45P     55
3.35528214613508,3.35528214613508,1.,0.84767252552532,1.,             45P     56
0.847672525525323,1.,0.847672525525322,1.,-0.636200731567089,         45P     57
-2.93161490092743,0.641803664656962,-0.678905647642182,               45P     58
-3.32978411540761,0.641803664656962,-0.339452823803203,               45P     59
-3.5422322587379,0.641803664656962,3.57749951208833D-11,              45P     60
-3.75468040206819,0.641803664656961,0.339452823854616,                45P     61
-3.54223225870572,0.64180366465696,0.678905647673458,                 45P     62
-3.32978411534326,0.641803664656959,0.636200731560624,                45P     63
-2.93161490086713,0.64180366465696,0.,3.35528214613508,0.,0.,0.;      45P     64
126,1,1,0,0,1,0,0.,0.,23.7,23.7,1.,1.,0.636200731560624,              47P     65
-2.93161490086713,0.64180366465696,0.636200731560665,                 47P     66
-2.93161490086714,19.601803664657,0.,23.7,0.,0.,0.;                   47P     67
126,6,2,0,0,0,0,0.,0.,0.,1.11842738204503,1.11842738204503,           49P     68
2.23685476409006,2.23685476409006,3.35528214613508,                   49P     69
3.35528214613508,3.35528214613508,1.,0.84767252552532,1.,             49P     70
0.847672525525318,1.,0.84767252552532,1.,-0.636200731567048,          49P     71
-2.93161490092744,19.601803664657,-0.678905647642141,                 49P     72
-3.32978411540762,19.601803664657,-0.339452823803163,                 49P     73
-3.54223225873791,19.601803664657,3.58161723561839D-11,               49P     74
-3.7546804020682,19.601803664657,0.339452823854657,                   49P     75
-3.54223225870573,19.601803664657,0.678905647673499,                  49P     76
-3.32978411534327,19.601803664657,0.636200731560665,                  49P     77
-2.93161490086713,19.601803664657,0.,3.35528214613508,0.,0.,0.;       49P     78
126,1,1,0,0,1,0,0.,0.,23.7,23.7,1.,1.,-0.636200731567089,             51P     79
-2.93161490092743,0.641803664656962,-0.636200731567048,               51P     80
-2.93161490092744,19.601803664657,0.,23.7,0.,0.,0.;                   51P     81
126,2,2,0,0,0,0,0.,0.,0.,0.427378984898806,0.427378984898806,         53P     82
0.427378984898806,1.,0.977255148598335,1.,0.636200731560624,          53P     83
-2.93161490086713,0.64180366465696,3.30922924563995D-12,              53P     84
-3.06967211533881,0.641803664656961,-0.636200731567089,               53P     85
-2.93161490092743,0.641803664656962,0.,0.427378984898806,0.,0.,       53P     86
0.;                                                                   53P     87
126,2,2,0,0,0,0,0.,0.,0.,0.427378984898806,0.427378984898806,         55P     88
0.427378984898806,1.,0.977255148598329,1.,0.636200731560665,          55P     89
-2.93161490086714,19.601803664657,3.35004565845756D-12,               55P     90
-3.06967211533882,19.601803664657,-0.636200731567048,                 55P     91
-2.93161490092744,19.601803664657,0.,0.427378984898806,0.,0.,0.;      55P     92
128,1,4,1,2,0,0,0,0,0,4.62218378469152D-17,4.62218378469152D-17,      57P     93
39.5123924747195,39.5123924747195,-2.61066955163903,                  57P     94
-2.61066955163903,-2.61066955163903,-1.30533477581951,                57P     95
-1.30533477581951,2.51613818951804D-15,2.51613818951804D-15,          57P     96
2.51613818951804D-15,1.,1.,0.794466701511665,0.794466701511665,       57P     97
1.,1.,0.794466701511665,0.794466701511665,1.,1.,                      57P     98
-0.463041055025196,-3.12589075006808,0.641803664656974,               57P     99
-0.463041055025155,-3.12589075006809,19.601803664657,                 57P    100
-0.366807413558269,-3.47984945513312,0.641803664656973,               57P    101
-0.366807413558228,-3.47984945513313,19.601803664657,                 57P    102
1.82198358767741D-15,-3.47984945513312,0.641803664656972,             57P    103
4.26383964052917D-14,-3.47984945513313,19.601803664657,               57P    104
0.366807413558272,-3.47984945513312,0.641803664656972,                57P    105
0.366807413558312,-3.47984945513313,19.601803664657,                  57P    106
0.463041055025198,-3.12589075006808,0.641803664656972,                57P    107
0.463041055025239,-3.12589075006809,19.601803664657,                  57P    108
4.62218378469152D-17,39.5123924747195,-2.61066955163903,              57P    109
2.51613818951804D-15;                                                 57P    110
128,1,2,1,2,0,0,0,0,0,2.56067424097862D-16,2.56067424097862D-16,      59P    111
5.99999999999993,5.99999999999993,0.,0.,0.,0.294122983377118,         59P    112
0.294122983377118,0.294122983377118,1.,1.,0.989205933565847,          59P    113
0.989205933565847,1.,1.,-0.463041055025155,-3.12589075006809,         59P    114
19.601803664657,-0.463041055025196,-3.12589075006808,                 59P    115
0.641803664656974,4.21285142196079D-14,-3.19448144493935,             59P    116
19.601803664657,1.31210140199361D-15,-3.19448144493935,               59P    117
0.641803664656973,0.463041055025239,-3.12589075006808,                59P    118
19.601803664657,0.463041055025198,-3.12589075006808,                  59P    119
0.641803664656972,2.56067424097862D-16,5.99999999999993,0.,           59P    120
0.294122983377118;                                                    59P    121
128,1,6,1,2,0,0,0,0,0,-5.12642712781512D-17,                          61P    122
-5.12642712781512D-17,29.6319702203316,29.6319702203316,              61P    123
-1.30134871849759D-16,-1.30134871849759D-16,                          61P    124
-1.30134871849759D-16,1.11842738204503,1.11842738204503,              61P    125
2.23685476409006,2.23685476409006,3.35528214613508,                   61P    126
3.35528214613508,3.35528214613508,1.,1.,0.84767252552532,             61P    127
0.84767252552532,1.,1.,0.84767252552532,0.84767252552532,1.,1.,       61P    128
0.84767252552532,0.84767252552532,1.,1.,-0.636200731567048,           61P    129
-2.93161490092744,19.601803664657,-0.636200731567089,                 61P    130
-2.93161490092743,0.641803664656962,-0.678905647642141,               61P    131
-3.32978411540762,19.601803664657,-0.678905647642182,                 61P    132
-3.32978411540761,0.641803664656962,-0.339452823803163,               61P    133
-3.54223225873791,19.601803664657,-0.339452823803204,                 61P    134
-3.5422322587379,0.641803664656962,3.58157143891862D-11,              61P    135
-3.7546804020682,19.601803664657,3.57748979763686D-11,                61P    136
-3.75468040206819,0.641803664656961,0.339452823854657,                61P    137
-3.54223225870573,19.601803664657,0.339452823854616,                  61P    138
-3.54223225870572,0.64180366465696,0.678905647673499,                 61P    139
-3.32978411534327,19.601803664657,0.678905647673458,                  61P    140
-3.32978411534326,0.641803664656959,0.636200731560665,                61P    141
-2.93161490086714,19.601803664657,0.636200731560624,                  61P    142
-2.93161490086713,0.64180366465696,-5.12642712781512D-17,             61P    143
29.6319702203316,-1.30134871849759D-16,3.35528214613508;              61P    144
128,1,2,1,2,0,0,0,0,0,2.51397373467597D-16,2.51397373467597D-16,      63P    145
6.31999999999999,6.31999999999999,-0.427378984898806,                 63P    146
-0.427378984898806,-0.427378984898806,3.70074341541718D-17,           63P    147
3.70074341541718D-17,3.70074341541718D-17,1.,1.,                      63P    148
0.977255148598337,0.977255148598337,1.,1.,-0.636200731567089,         63P    149
-2.93161490092743,0.641803664656962,-0.636200731567048,               63P    150
-2.93161490092744,19.601803664657,3.31045049096704D-12,               63P    151
-3.06967211533881,0.641803664656961,3.35126690378465D-12,             63P    152
-3.06967211533882,19.601803664657,0.636200731560624,                  63P    153
-2.93161490086713,0.64180366465696,0.636200731560665,                 63P    154
-2.93161490086714,19.601803664657,2.51397373467597D-16,               63P    155
6.31999999999999,-0.427378984898806,3.70074341541718D-17;             63P    156
128,1,1,1,1,0,0,1,0,0,-0.84963205956456,-0.84963205956456,            65P    157
0.849632059579989,0.849632059579989,-0.694894910920834,               65P    158
-0.694894910920834,0.335936965580497,0.335936965580497,1.,1.,1.,      65P    159
1.,-0.679705647642141,-3.7554804020682,19.601803664657,               65P    160
0.679705647673499,-3.7554804020682,19.601803664657,                   65P    161
-0.679705647642141,-2.93081490086713,19.601803664657,                 65P    162
0.679705647673499,-2.93081490086714,19.601803664657,                  65P    163
-0.84963205956456,0.849632059579989,-0.694894910920834,               65P    164
0.335936965580497;                                                    65P    165
128,1,1,1,1,0,0,1,0,0,-0.84963205956456,-0.84963205956456,            67P    166
0.849632059579989,0.849632059579989,-0.694894910920834,               67P    167
-0.694894910920834,0.335936965580496,0.335936965580496,1.,1.,1.,      67P    168
1.,0.679705647673458,-3.75548040206819,0.641803664656959,             67P    169
-0.679705647642182,-3.75548040206819,0.641803664656962,               67P    170
0.679705647673458,-2.93081490086713,0.64180366465696,                 67P    171
-0.679705647642182,-2.93081490086713,0.641803664656963,               67P    172
-0.84963205956456,0.849632059579989,-0.694894910920834,               67P    173
0.335936965580496;                                                    67P    174
502,8,0.463041055025198,-3.12589075006808,0.641803664656972,          69P    175
-0.463041055025196,-3.12589075006808,0.641803664656974,               69P    176
-0.463041055025155,-3.12589075006809,19.601803664657,                 69P    177
0.463041055025239,-3.12589075006808,19.601803664657,                  69P    178
-0.636200731567089,-2.93161490092743,0.641803664656962,               69P    179
0.636200731560624,-2.93161490086713,0.64180366465696,                 69P    180
0.636200731560665,-2.93161490086714,19.601803664657,                  69P    181
-0.636200731567048,-2.93161490092744,19.601803664657;                 69P    182
504,12,33,69,1,69,2,35,69,2,69,3,37,69,4,69,3,39,69,1,69,4,41,        71P    183
69,2,69,1,43,69,3,69,4,45,69,5,69,6,47,69,6,69,7,49,69,8,69,7,        71P    184
51,69,5,69,8,53,69,6,69,5,55,69,7,69,8;                               71P    185
406,1,2H66;                                                           73P    186
406,2,0,4HTUBE;                                                       75P    187
314,100.,100.,100.,;                                                  77P    188
S      1G      4D     78P    188                                        T      1
