                                                                        S      1
,,,6HP_Tube,48HAutoCAD 2025 - 简体中文 (Simplified Chinese),62HAutodG      1
esk Translation Framework DWG producer (atf_dwg_producer),32,38,7,99,15,G      2
,1.,10,2HCM,1,0.08,15H20260128.161136,0.001,10000.,,7Hunknown,11,0,15H20G      3
260127.095300;                                                          G      4
     186       1                       1                        00000000D      1
     186             -77       1       0                               0D      2
     514       2                                                00010000D      3
     514                       1       1                               0D      4
     510       3                                                00010000D      5
     510             -77       1       1                               0D      6
     510       4                                                00010000D      7
     510             -77       1       1                               0D      8
     510       5                                                00010000D      9
     510             -77       1       1                               0D     10
     510       6                                                00010000D     11
     510             -77       1       1                               0D     12
     510       7                                                00010000D     13
     510             -77       1       1                               0D     14
     510       8                                                00010000D     15
     510             -77       1       1                               0D     16
     508       9                                                00010000D     17
     508                       1       1                               0D     18
     508      10                                                00010000D     19
     508                       1       1                               0D     20
     508      11                                                00010000D     21
     508                       1       1                               0D     22
     508      12                                                00010000D     23
     508                       1       1                               0D     24
     508      13                                                00010000D     25
     508                       1       1                               0D     26
     508      14                                                00010000D     27
     508                       1       1                               0D     28
     508      15                                                00010000D     29
     508                       1       1                               0D     30
     508      16                                                00010000D     31
     508                       1       1                               0D     32
     126      17                                                00010000D     33
     126       0              10       0                               0D     34
     126      27                                                00010000D     35
     126       0               3       0                               0D     36
     126      30                                                00010000D     37
     126       0              10       0                               0D     38
     126      40                                                00010000D     39
     126       0               3       0                               0D     40
     126      43                                                00010000D     41
     126       0               6       0                               0D     42
     126      49                                                00010000D     43
     126       0               5       0                               0D     44
     126      54                                                00010000D     45
     126       0              12       0                               0D     46
     126      66                                                00010000D     47
     126       0               3       0                               0D     48
     126      69                                                00010000D     49
     126       0              11       0                               0D     50
     126      80                                                00010000D     51
     126       0               3       0                               0D     52
     126      83                                                00010000D     53
     126       0               6       0                               0D     54
     126      89                                                00010000D     55
     126       0               5       0                               0D     56
     128      94                                                00010000D     57
     128       0     -77      18       0                               0D     58
     128     112                                                00010000D     59
     128       0     -77      12       0                               0D     60
     128     124                                                00010000D     61
     128       0     -77      22       0                               0D     62
     128     146                                                00010000D     63
     128       0     -77      12       0                               0D     64
     128     158                                                00010000D     65
     128       0     -77       9       0                               0D     66
     128     167                                                00010000D     67
     128       0     -77       9       0                               0D     68
     502     176                                                00010000D     69
     502                       8       1                               0D     70
     504     184                                                00010001D     71
     504                       3       1                               0D     72
     406     187                                                00000000D     73
     406                       1      15                               0D     74
     406     188                       1                        00000000D     75
     406             -77       1       3                               0D     76
     314     189                                                00000200D     77
     314                       1       0                               0D     78
186,3,1,0,0,1,73;                                                      1P      1
514,6,5,1,7,1,9,1,11,1,13,1,15,1;                                      3P      2
510,57,1,1,17;                                                         5P      3
510,59,1,1,19;                                                         7P      4
510,61,1,1,21;                                                         9P      5
510,63,1,1,23;                                                        11P      6
510,65,2,1,25,27;                                                     13P      7
510,67,2,1,29,31;                                                     15P      8
508,4,0,71,1,1,0,0,71,2,1,0,0,71,3,0,0,0,71,4,0,0;                    17P      9
508,4,0,71,5,1,0,0,71,4,1,0,0,71,6,0,0,0,71,2,0,0;                    19P     10
508,4,0,71,7,1,0,0,71,8,1,0,0,71,9,0,0,0,71,10,0,0;                   21P     11
508,4,0,71,11,1,0,0,71,10,1,0,0,71,12,0,0,0,71,8,0,0;                 23P     12
508,2,0,71,12,1,0,0,71,9,1,0;                                         25P     13
508,2,0,71,6,1,0,0,71,3,1,0;                                          27P     14
508,2,0,71,11,0,0,0,71,7,0,0;                                         29P     15
508,2,0,71,5,0,0,0,71,1,0,0;                                          31P     16
126,4,2,0,0,0,0,-2.16012176002039D-15,-2.16012176002039D-15,          33P     17
-2.16012176002039D-15,1.30533477581951,1.30533477581951,              33P     18
2.61066955163903,2.61066955163903,2.61066955163903,1.,                33P     19
0.794466701511669,1.,0.794466701511666,1.,0.578801318781497,          33P     20
-3.90736343758509,0.802254580821214,0.45850926694784,                 33P     21
-4.3498118189164,0.802254580821214,2.1450671195736D-15,               33P     22
-4.3498118189164,0.802254580821215,-0.458509266947835,                33P     23
-4.3498118189164,0.802254580821216,-0.578801318781494,                33P     24
-3.90736343758509,0.802254580821217,-2.16012176002039D-15,            33P     25
2.61066955163903,0.,0.,0.;                                            33P     26
126,1,1,0,0,1,0,0.,0.,23.7,23.7,1.,1.,-0.578801318781494,             35P     27
-3.90736343758509,0.802254580821217,-0.578801318781444,               35P     28
-3.90736343758511,24.5022545808212,0.,23.7,0.,0.,0.;                  35P     29
126,4,2,0,0,0,0,-2.16012176002039D-15,-2.16012176002039D-15,          37P     30
-2.16012176002039D-15,1.30533477581951,1.30533477581951,              37P     31
2.61066955163903,2.61066955163903,2.61066955163903,1.,                37P     32
0.794466701511669,1.,0.794466701511666,1.,0.578801318781548,          37P     33
-3.9073634375851,24.5022545808212,0.45850926694789,                   37P     34
-4.34981181891641,24.5022545808212,5.27633205175038D-14,              37P     35
-4.34981181891641,24.5022545808212,-0.458509266947785,                37P     36
-4.34981181891641,24.5022545808212,-0.578801318781444,                37P     37
-3.90736343758511,24.5022545808212,-2.16012176002039D-15,             37P     38
2.61066955163903,0.,0.,0.;                                            37P     39
126,1,1,0,0,1,0,0.,0.,23.7,23.7,1.,1.,0.578801318781497,              39P     40
-3.90736343758509,0.802254580821214,0.578801318781548,                39P     41
-3.9073634375851,24.5022545808212,0.,23.7,0.,0.,0.;                   39P     42
126,2,2,0,0,0,0,0.,0.,0.,0.294122983377118,0.294122983377118,         41P     43
0.294122983377118,1.,0.989205933565869,1.,-0.578801318781494,         41P     44
-3.90736343758509,0.802254580821217,1.70977672689723D-15,             41P     45
-3.99310180617418,0.802254580821216,0.578801318781497,                41P     46
-3.90736343758509,0.802254580821214,0.,0.294122983377118,0.,0.,       41P     47
0.;                                                                   41P     48
126,2,2,0,0,0,0,0.,0.,0.,0.294122983377118,0.294122983377118,         43P     49
0.294122983377118,1.,0.989205933565869,1.,-0.578801318781444,         43P     50
-3.90736343758511,24.5022545808212,5.23280301248275D-14,              43P     51
-3.99310180617419,24.5022545808212,0.578801318781548,                 43P     52
-3.9073634375851,24.5022545808212,0.,0.294122983377118,0.,0.,0.;      43P     53
126,6,2,0,0,0,0,0.,0.,0.,1.11842738204503,1.11842738204503,           45P     54
2.23685476409006,2.23685476409006,3.35528214613508,                   45P     55
3.35528214613508,3.35528214613508,1.,0.847672525525318,1.,            45P     56
0.847672525525321,1.,0.84767252552532,1.,-0.795250914458861,          45P     57
-3.66451862615929,0.802254580821203,-0.848632059552727,               45P     58
-4.16223014425951,0.802254580821203,-0.424316029754004,               45P     59
-4.42779032342237,0.802254580821202,4.47185637508979D-11,             45P     60
-4.69335050258524,0.802254580821201,0.42431602981827,                 45P     61
-4.42779032338215,0.8022545808212,0.848632059591822,                  45P     62
-4.16223014417907,0.802254580821199,0.79525091445078,                 45P     63
-3.66451862608391,0.802254580821199,0.,3.35528214613508,0.,0.,        45P     64
0.;                                                                   45P     65
126,1,1,0,0,1,0,0.,0.,23.7,23.7,1.,1.,0.79525091445078,               47P     66
-3.66451862608391,0.802254580821199,0.79525091445083,                 47P     67
-3.66451862608392,24.5022545808212,0.,23.7,0.,0.,0.;                  47P     68
126,6,2,0,0,0,0,0.,0.,0.,1.11842738204503,1.11842738204503,           49P     69
2.23685476409006,2.23685476409006,3.35528214613508,                   49P     70
3.35528214613508,3.35528214613508,1.,0.847672525525318,1.,            49P     71
0.847672525525321,1.,0.847672525525319,1.,-0.79525091445881,          49P     72
-3.6645186261593,24.5022545808212,-0.848632059552677,                 49P     73
-4.16223014425952,24.5022545808212,-0.424316029753954,                49P     74
-4.42779032342238,24.5022545808212,4.47691820042959D-11,              49P     75
-4.69335050258525,24.5022545808212,0.424316029818321,                 49P     76
-4.42779032338217,24.5022545808212,0.848632059591873,                 49P     77
-4.16223014417908,24.5022545808212,0.795250914450831,                 49P     78
-3.66451862608392,24.5022545808212,0.,3.35528214613508,0.,0.,0.;      49P     79
126,1,1,0,0,1,0,0.,0.,23.7,23.7,1.,1.,-0.795250914458861,             51P     80
-3.66451862615929,0.802254580821203,-0.79525091445881,                51P     81
-3.6645186261593,24.5022545808212,0.,23.7,0.,0.,0.;                   51P     82
126,2,2,0,0,0,0,0.,0.,0.,0.427378984898806,0.427378984898806,         53P     83
0.427378984898806,1.,0.977255148598326,1.,0.79525091445078,           53P     84
-3.66451862608391,0.802254580821199,4.13835480828812D-12,             53P     85
-3.83709014417351,0.802254580821201,-0.795250914458861,               53P     86
-3.66451862615929,0.802254580821203,0.,0.427378984898806,0.,0.,       53P     87
0.;                                                                   53P     88
126,2,2,0,0,0,0,0.,0.,0.,0.427378984898806,0.427378984898806,         55P     89
0.427378984898806,1.,0.977255148598326,1.,0.79525091445083,           55P     90
-3.66451862608392,24.5022545808212,4.18897306168605D-12,              55P     91
-3.83709014417352,24.5022545808212,-0.79525091445881,                 55P     92
-3.6645186261593,24.5022545808212,0.,0.427378984898806,0.,0.,0.;      55P     93
128,1,4,1,2,0,0,0,0,0,4.62218378469152D-17,4.62218378469152D-17,      57P     94
39.5123924747194,39.5123924747194,-2.61066955163903,                  57P     95
-2.61066955163903,-2.61066955163903,-1.30533477581951,                57P     96
-1.30533477581951,2.54505931813319D-15,2.54505931813319D-15,          57P     97
2.54505931813319D-15,1.,1.,0.794466701511665,0.794466701511665,       57P     98
1.,1.,0.794466701511665,0.794466701511665,1.,1.,                      57P     99
-0.578801318781495,-3.90736343758509,0.802254580821217,               57P    100
-0.578801318781444,-3.90736343758511,24.5022545808212,                57P    101
-0.458509266947836,-4.3498118189164,0.802254580821216,                57P    102
-0.458509266947785,-4.34981181891641,24.5022545808212,                57P    103
1.99324586990272D-15,-4.3498118189164,0.802254580821215,              57P    104
5.26114992678329D-14,-4.34981181891641,24.5022545808212,              57P    105
0.458509266947839,-4.3498118189164,0.802254580821214,                 57P    106
0.45850926694789,-4.34981181891641,24.5022545808212,                  57P    107
0.578801318781497,-3.90736343758509,0.802254580821214,                57P    108
0.578801318781548,-3.90736343758511,24.5022545808212,                 57P    109
4.62218378469152D-17,39.5123924747194,-2.61066955163903,              57P    110
2.54505931813319D-15;                                                 57P    111
128,1,2,1,2,0,0,0,0,0,2.56067424097862D-16,2.56067424097862D-16,      59P    112
5.99999999999993,5.99999999999993,-2.81069120158264D-17,              59P    113
-2.81069120158264D-17,-2.81069120158264D-17,0.294122983377118,        59P    114
0.294122983377118,0.294122983377118,1.,1.,0.989205933565847,          59P    115
0.989205933565847,1.,1.,-0.578801318781444,-3.90736343758511,         59P    116
24.5022545808212,-0.578801318781494,-3.90736343758509,                59P    117
0.802254580821217,5.22170078223649D-14,-3.99310180617419,             59P    118
24.5022545808212,1.59875442443471D-15,-3.99310180617418,              59P    119
0.802254580821216,0.578801318781548,-3.9073634375851,                 59P    120
24.5022545808212,0.578801318781497,-3.90736343758509,                 59P    121
0.802254580821214,2.56067424097862D-16,5.99999999999993,              59P    122
-2.81069120158264D-17,0.294122983377118;                              59P    123
128,1,6,1,2,0,0,0,0,0,-5.12642712781511D-17,                          61P    124
-5.12642712781511D-17,29.6319702203316,29.6319702203316,0.,0.,        61P    125
0.,1.11842738204503,1.11842738204503,2.23685476409006,                61P    126
2.23685476409006,3.35528214613508,3.35528214613508,                   61P    127
3.35528214613508,1.,1.,0.84767252552532,0.84767252552532,1.,1.,       61P    128
0.84767252552532,0.84767252552532,1.,1.,0.84767252552532,             61P    129
0.84767252552532,1.,1.,-0.79525091445881,-3.6645186261593,            61P    130
24.5022545808212,-0.795250914458861,-3.66451862615929,                61P    131
0.802254580821203,-0.848632059552677,-4.16223014425952,               61P    132
24.5022545808212,-0.848632059552727,-4.16223014425951,                61P    133
0.802254580821203,-0.424316029753954,-4.42779032342238,               61P    134
24.5022545808212,-0.424316029754004,-4.42779032342237,                61P    135
0.802254580821202,4.47693762933252D-11,-4.69335050258525,             61P    136
24.5022545808212,4.47187580399273D-11,-4.69335050258524,              61P    137
0.802254580821201,0.424316029818321,-4.42779032338217,                61P    138
24.5022545808212,0.42431602981827,-4.42779032338215,                  61P    139
0.8022545808212,0.848632059591873,-4.16223014417908,                  61P    140
24.5022545808212,0.848632059591822,-4.16223014417907,                 61P    141
0.802254580821199,0.795250914450831,-3.66451862608392,                61P    142
24.5022545808212,0.79525091445078,-3.66451862608391,                  61P    143
0.802254580821199,-5.12642712781511D-17,29.6319702203316,0.,          61P    144
3.35528214613508;                                                     61P    145
128,1,2,1,2,0,0,0,0,0,2.51397373467597D-16,2.51397373467597D-16,      63P    146
6.31999999999999,6.31999999999999,-0.427378984898806,                 63P    147
-0.427378984898806,-0.427378984898806,9.45417656129756D-33,           63P    148
9.45417656129756D-33,9.45417656129756D-33,1.,1.,                      63P    149
0.977255148598337,0.977255148598337,1.,1.,-0.795250914458861,         63P    150
-3.66451862615929,0.802254580821203,-0.79525091445881,                63P    151
-3.6645186261593,24.5022545808212,4.13807725253197D-12,               63P    152
-3.83709014417351,0.802254580821201,4.1886955059299D-12,              63P    153
-3.83709014417352,24.5022545808212,0.79525091445078,                  63P    154
-3.66451862608391,0.802254580821199,0.79525091445083,                 63P    155
-3.66451862608392,24.5022545808212,2.51397373467597D-16,              63P    156
6.31999999999999,-0.427378984898806,9.45417656129756D-33;             63P    157
128,1,1,1,1,0,0,1,0,0,-0.84963205956456,-0.84963205956456,            65P    158
0.849632059579989,0.849632059579989,-0.694894910920834,               65P    159
-0.694894910920834,0.335936965580496,0.335936965580496,1.,1.,1.,      65P    160
1.,-0.849632059552677,-4.69435050258525,24.5022545808212,             65P    161
0.849632059591873,-4.69435050258525,24.5022545808212,                 65P    162
-0.849632059552677,-3.66351862608392,24.5022545808212,                65P    163
0.849632059591873,-3.66351862608392,24.5022545808212,                 65P    164
-0.84963205956456,0.849632059579989,-0.694894910920834,               65P    165
0.335936965580496;                                                    65P    166
128,1,1,1,1,0,0,1,0,0,-0.84963205956456,-0.84963205956456,            67P    167
0.849632059579989,0.849632059579989,-0.694894910920834,               67P    168
-0.694894910920834,0.335936965580496,0.335936965580496,1.,1.,1.,      67P    169
1.,0.849632059591822,-4.69435050258524,0.802254580821199,             67P    170
-0.849632059552727,-4.69435050258524,0.802254580821203,               67P    171
0.849632059591822,-3.66351862608391,0.802254580821199,                67P    172
-0.849632059552727,-3.66351862608391,0.802254580821203,               67P    173
-0.84963205956456,0.849632059579989,-0.694894910920834,               67P    174
0.335936965580496;                                                    67P    175
502,8,0.578801318781497,-3.90736343758509,0.802254580821214,          69P    176
-0.578801318781494,-3.90736343758509,0.802254580821217,               69P    177
-0.578801318781444,-3.90736343758511,24.5022545808212,                69P    178
0.578801318781548,-3.9073634375851,24.5022545808212,                  69P    179
-0.795250914458861,-3.66451862615929,0.802254580821203,               69P    180
0.79525091445078,-3.66451862608391,0.802254580821199,                 69P    181
0.795250914450831,-3.66451862608392,24.5022545808212,                 69P    182
-0.79525091445881,-3.6645186261593,24.5022545808212;                  69P    183
504,12,33,69,1,69,2,35,69,2,69,3,37,69,4,69,3,39,69,1,69,4,41,        71P    184
69,2,69,1,43,69,3,69,4,45,69,5,69,6,47,69,6,69,7,49,69,8,69,7,        71P    185
51,69,5,69,8,53,69,6,69,5,55,69,7,69,8;                               71P    186
406,1,2H66;                                                           73P    187
406,2,0,4HTUBE;                                                       75P    188
314,100.,100.,100.,;                                                  77P    189
S      1G      4D     78P    189                                        T      1
